<svg width="40" height="50" viewBox="0 0 40 50" fill="none" xmlns="http://www.w3.org/2000/svg">
<path d="M35.3516 15.625L27.5391 29.1567L11.9141 29.1566L4.10157 15.625L11.9141 2.09335L27.5391 2.09335L35.3516 15.625Z" fill="#FC9A04"/>
<path d="M20.3341 22.4654H12.9883V21.7628H14.7981V8.88093H12.9883V8.18893H20.5577C22.3107 8.18893 23.5634 8.52961 24.3158 9.21096C25.0752 9.88522 25.4549 10.6624 25.4549 11.5425C25.4549 12.2806 25.1639 12.9761 24.5819 13.6291C23.9999 14.275 22.985 14.6973 21.5371 14.896V14.9386C24.4967 15.3218 25.9766 16.5142 25.9766 18.5157C25.9766 19.708 25.501 20.6662 24.55 21.3901C23.5989 22.107 22.1936 22.4654 20.3341 22.4654ZM18.2901 8.88093V14.5979H19.1098C20.1602 14.5979 20.8629 14.4524 21.2177 14.1614C21.5726 13.8704 21.75 13.0542 21.75 11.7128C21.75 10.5914 21.6046 9.83908 21.3136 9.45582C21.0297 9.07256 20.398 8.88093 19.4185 8.88093H18.2901ZM19.3547 15.2899H18.2901V21.7628H19.1098C20.3873 21.7628 21.2035 21.5569 21.5584 21.1453C21.9204 20.7336 22.1014 19.779 22.1014 18.2815C22.1014 17.0891 21.8884 16.2942 21.4626 15.8967C21.0439 15.4922 20.3412 15.2899 19.3547 15.2899Z" fill="#FFFBEA"/>
<path d="M5.27313 45.25H0.0088501V44.7465H1.30585V35.5149H0.0088501V35.019H5.43335C6.68966 35.019 7.58738 35.2631 8.12653 35.7514C8.67076 36.2346 8.94287 36.7915 8.94287 37.4222C8.94287 37.9512 8.73433 38.4497 8.31726 38.9176C7.90019 39.3805 7.17285 39.6831 6.13525 39.8255V39.856C8.25623 40.1307 9.31671 40.9852 9.31671 42.4195C9.31671 43.274 8.97593 43.9606 8.29437 44.4794C7.61281 44.9931 6.60573 45.25 5.27313 45.25ZM3.80829 35.5149V39.6119H4.39575C5.14852 39.6119 5.65206 39.5076 5.90637 39.2991C6.16069 39.0905 6.28784 38.5056 6.28784 37.5443C6.28784 36.7407 6.18357 36.2015 5.97504 35.9269C5.77159 35.6522 5.31891 35.5149 4.617 35.5149H3.80829ZM4.57123 40.1078H3.80829V44.7465H4.39575C5.31128 44.7465 5.8962 44.599 6.15051 44.304C6.40991 44.009 6.53961 43.3248 6.53961 42.2516C6.53961 41.3972 6.38702 40.8275 6.08185 40.5427C5.78176 40.2527 5.27822 40.1078 4.57123 40.1078ZM14.1232 41.7481V40.3748C14.1232 40.0035 14.0775 39.7416 13.9859 39.589C13.8943 39.4364 13.6604 39.3601 13.284 39.3601C12.9839 39.3601 12.7499 39.4059 12.5821 39.4974C12.4142 39.5839 12.3303 39.6729 12.3303 39.7645C12.3303 39.8255 12.3888 39.9171 12.5058 40.0391C12.6279 40.1612 12.6889 40.3138 12.6889 40.4969C12.6889 40.7614 12.5897 40.9903 12.3914 41.1835C12.193 41.3717 11.9438 41.4658 11.6437 41.4658C11.369 41.4658 11.1325 41.3768 10.9341 41.1988C10.7358 41.0157 10.6366 40.7944 10.6366 40.535C10.6366 40.0874 10.9011 39.7085 11.4301 39.3983C11.9641 39.0829 12.7016 38.9252 13.6426 38.9252C14.3699 38.9252 14.9777 39.0168 15.466 39.1999C15.9594 39.383 16.2061 39.795 16.2061 40.4359V43.6555C16.2061 44.2099 16.3612 44.4871 16.6714 44.4871C16.7579 44.4871 16.8774 44.4387 17.03 44.3421L17.236 44.6854C16.8037 45.189 16.3027 45.4407 15.733 45.4407C15.1379 45.4407 14.6395 45.133 14.2377 44.5176C13.5714 45.133 12.8313 45.4407 12.0175 45.4407C11.4682 45.4407 11.0359 45.2983 10.7205 45.0135C10.4052 44.7236 10.2475 44.365 10.2475 43.9377C10.2475 42.5797 11.5394 41.8498 14.1232 41.7481ZM14.1232 43.1443V42.1525C13.4366 42.1779 12.9585 42.2873 12.6889 42.4805C12.4193 42.6687 12.2845 42.9866 12.2845 43.4342C12.2845 43.7801 12.3685 44.0522 12.5363 44.2505C12.7042 44.4489 12.9203 44.5481 13.1848 44.5481C13.4849 44.5481 13.7163 44.4489 13.8791 44.2505C14.0418 44.0522 14.1232 43.6834 14.1232 43.1443ZM23.9575 41.8244H20.2039V42.8162C20.2039 43.5944 20.2725 44.1336 20.4099 44.4337C20.5523 44.7287 20.8752 44.8762 21.3788 44.8762C21.8213 44.8762 22.2333 44.7337 22.6147 44.4489C23.0013 44.1641 23.2963 43.7216 23.4998 43.1214H23.9575C23.7693 43.8945 23.4209 44.4743 22.9123 44.8609C22.4037 45.2475 21.7933 45.4407 21.0812 45.4407C20.1098 45.4407 19.3316 45.1076 18.7466 44.4413C18.1668 43.775 17.8769 43.007 17.8769 42.1372C17.8769 41.3031 18.1719 40.5605 18.7619 39.9094C19.3519 39.2533 20.0894 38.9252 20.9744 38.9252C21.7374 38.9252 22.4011 39.1643 22.9657 39.6424C23.5303 40.1205 23.8609 40.8478 23.9575 41.8244ZM20.2039 41.3285H21.8442V40.6876C21.8442 40.1332 21.7679 39.7746 21.6153 39.6119C21.4678 39.444 21.2643 39.3601 21.0049 39.3601C20.7608 39.3601 20.565 39.4339 20.4175 39.5814C20.2751 39.7289 20.2039 40.1027 20.2039 40.7029V41.3285ZM30.6714 34.874V44.7999H31.503V45.25H30.5493C30.2391 45.25 29.9491 45.2576 29.6796 45.2729L28.8098 45.3416H28.5962V44.4184H28.5657C28.2402 45.1 27.7341 45.4407 27.0474 45.4407C26.3811 45.4407 25.7962 45.1203 25.2927 44.4794C24.7942 43.8335 24.545 43.0375 24.545 42.0914C24.545 41.181 24.7993 40.4257 25.3079 39.8255C25.8165 39.2253 26.4066 38.9252 27.0779 38.9252C27.6476 38.9252 28.1537 39.1846 28.5962 39.7034V35.4844H27.3602V35.019H28.4512C28.7005 35.019 29.1175 34.9961 29.7025 34.9503C30.2874 34.8995 30.6104 34.874 30.6714 34.874ZM28.5962 42.8773V41.2369C28.5962 40.6012 28.4767 40.1307 28.2376 39.8255C28.0036 39.5152 27.762 39.3601 27.5128 39.3601C27.3195 39.3601 27.1695 39.4695 27.0627 39.6882C26.9559 39.9069 26.9025 40.3494 26.9025 41.0157V43.3121C26.9025 43.9479 26.9406 44.3752 27.0169 44.5939C27.0983 44.8126 27.2432 44.9219 27.4518 44.9219C27.6705 44.9219 27.9146 44.7795 28.1842 44.4947C28.4589 44.2099 28.5962 43.6707 28.5962 42.8773ZM31.7471 39.1083H35.5542V39.5814H34.6387L36.2332 42.8467L37.2479 40.4664C37.37 40.1561 37.431 39.9527 37.431 39.856C37.431 39.6729 37.2225 39.5814 36.8054 39.5814H36.5231V39.1083H38.9035V39.5814C38.5729 39.5814 38.3516 39.622 38.2397 39.7034C38.1278 39.7797 38.0058 39.973 37.8735 40.2833L34.6082 47.8287C34.6082 47.961 34.4632 48.2306 34.1733 48.6375C33.8884 49.0444 33.4637 49.2478 32.8992 49.2478C32.5787 49.2478 32.3117 49.1512 32.0981 48.9579C31.8845 48.7697 31.7776 48.5484 31.7776 48.2941C31.7776 48.0449 31.8641 47.8262 32.037 47.638C32.21 47.4498 32.416 47.3557 32.655 47.3557C33.0009 47.3557 33.2857 47.5541 33.5095 47.9508C33.5756 48.0678 33.6443 48.1263 33.7155 48.1263C33.8884 48.1263 34.0817 47.8694 34.2953 47.3557L35.1651 45.25L32.3575 39.5814H31.7471V39.1083Z" fill="#FC9A04"/>
</svg>
