<svg width="32" height="32" viewBox="0 0 32 32" fill="none" xmlns="http://www.w3.org/2000/svg">
<path d="M31.3516 15.625L23.5391 29.1567L7.91407 29.1566L0.101566 15.625L7.91407 2.09335L23.5391 2.09335L31.3516 15.625Z" fill="#FC9A04"/>
<path d="M16.3341 22.4654H8.98828V21.7628H10.7981V8.88093H8.98828V8.18893H16.5577C18.3107 8.18893 19.5634 8.52961 20.3158 9.21096C21.0752 9.88522 21.4549 10.6624 21.4549 11.5425C21.4549 12.2806 21.1639 12.9761 20.5819 13.6291C19.9999 14.275 18.985 14.6973 17.5371 14.896V14.9386C20.4967 15.3218 21.9766 16.5142 21.9766 18.5157C21.9766 19.708 21.501 20.6662 20.55 21.3901C19.5989 22.107 18.1936 22.4654 16.3341 22.4654ZM14.2901 8.88093V14.5979H15.1098C16.1602 14.5979 16.8629 14.4524 17.2177 14.1614C17.5726 13.8704 17.75 13.0542 17.75 11.7128C17.75 10.5914 17.6046 9.83908 17.3136 9.45582C17.0297 9.07256 16.398 8.88093 15.4185 8.88093H14.2901ZM15.3547 15.2899H14.2901V21.7628H15.1098C16.3873 21.7628 17.2035 21.5569 17.5584 21.1453C17.9204 20.7336 18.1014 19.779 18.1014 18.2815C18.1014 17.0891 17.8884 16.2942 17.4626 15.8967C17.0439 15.4922 16.3412 15.2899 15.3547 15.2899Z" fill="#FFFBEA"/>
</svg>
